# xmcd
#
# Track frame offsets:
#	150
#	17055
#	36302
#	51048
#	63394
#	75082
#	102205
#	118469
#	124992
#	138311
#	149736
#	175451
#	196066
#	214577
#
# Disc length: 3046 seconds
#
# Revision: 1
# Processed by: cddbd v1.5.2PL0 Copyright (c) Steve Scherf et al.
# Submitted via: EasyCDDAExtractor 2010.6.0.0
#
DISCID=cc0be40e
DTITLE=Various Artist - Emozioni In Musica-Alice E Dintorni
DYEAR=1998
DGENRE=Italiani
TTITLE0=Francesco De Gregori - Alice
TTITLE1=Pfm - Impressioni Di Settembre
TTITLE2=Patty Pravo - La Valigia Blu
TTITLE3=Edoardo Bennato - Ma Che Bella Città
TTITLE4=Le Orme - Fiori E Colori
TTITLE5=Antonello Venditti - Compagno Di Scuola
TTITLE6=Equipe 84 - Mercante Senza Fiori
TTITLE7=Stormy Six - Guarda Giù Dalla Pianura
TTITLE8=Lucio Dalla - Pezzo Zero
TTITLE9=I Camaleonti - Non C'è Niente Di Nuovo
TTITLE10=Pfm - La Carrozza Di Hans
TTITLE11=Loredana Bertè - E La Luna Bussò
TTITLE12=Edoardo Bennato - Salviamo Il Salvabile
TTITLE13=I Profeti - Gli Occhi Verdi Dell'amore
EXTD=
EXTT0=
EXTT1=
EXTT2=
EXTT3=
EXTT4=
EXTT5=
EXTT6=
EXTT7=
EXTT8=
EXTT9=
EXTT10=
EXTT11=
EXTT12=
EXTT13=
PLAYORDER=
